<mxfile host="Electron" agent="Mozilla/5.0 (Macintosh; Intel Mac OS X 10_15_7) AppleWebKit/537.36 (KHTML, like Gecko) draw.io/24.7.5 Chrome/126.0.6478.183 Electron/31.3.0 Safari/537.36" version="24.7.5">
  <diagram name="Page-1" id="U8noF85trtSTV92ljQh1">
    <mxGraphModel dx="1645" dy="1955" grid="1" gridSize="10" guides="1" tooltips="1" connect="1" arrows="1" fold="1" page="1" pageScale="1" pageWidth="850" pageHeight="1100" math="0" shadow="0">
      <root>
        <mxCell id="0" />
        <mxCell id="1" parent="0" />
        <mxCell id="1CKEVuWMB60yqOg6PnPK-10" value="" style="edgeStyle=orthogonalEdgeStyle;rounded=0;orthogonalLoop=1;jettySize=auto;html=1;" edge="1" parent="1" source="1CKEVuWMB60yqOg6PnPK-1" target="1CKEVuWMB60yqOg6PnPK-3">
          <mxGeometry relative="1" as="geometry" />
        </mxCell>
        <mxCell id="1CKEVuWMB60yqOg6PnPK-1" value="sample" style="text;html=1;align=center;verticalAlign=middle;resizable=0;points=[];autosize=1;strokeColor=none;fillColor=none;" vertex="1" parent="1">
          <mxGeometry x="230" y="330" width="60" height="30" as="geometry" />
        </mxCell>
        <mxCell id="1CKEVuWMB60yqOg6PnPK-11" value="" style="edgeStyle=orthogonalEdgeStyle;rounded=0;orthogonalLoop=1;jettySize=auto;html=1;" edge="1" parent="1" source="1CKEVuWMB60yqOg6PnPK-2" target="1CKEVuWMB60yqOg6PnPK-4">
          <mxGeometry relative="1" as="geometry" />
        </mxCell>
        <mxCell id="1CKEVuWMB60yqOg6PnPK-2" value="population" style="text;html=1;align=center;verticalAlign=middle;resizable=0;points=[];autosize=1;strokeColor=none;fillColor=none;" vertex="1" parent="1">
          <mxGeometry x="480" y="330" width="80" height="30" as="geometry" />
        </mxCell>
        <mxCell id="1CKEVuWMB60yqOg6PnPK-8" value="" style="edgeStyle=orthogonalEdgeStyle;shape=link;rounded=0;orthogonalLoop=1;jettySize=auto;html=1;" edge="1" parent="1" source="1CKEVuWMB60yqOg6PnPK-3" target="1CKEVuWMB60yqOg6PnPK-5">
          <mxGeometry relative="1" as="geometry" />
        </mxCell>
        <mxCell id="1CKEVuWMB60yqOg6PnPK-3" value="statistic" style="text;html=1;align=center;verticalAlign=middle;resizable=0;points=[];autosize=1;strokeColor=none;fillColor=none;" vertex="1" parent="1">
          <mxGeometry x="230" y="430" width="60" height="30" as="geometry" />
        </mxCell>
        <mxCell id="1CKEVuWMB60yqOg6PnPK-9" value="" style="edgeStyle=orthogonalEdgeStyle;shape=link;rounded=0;orthogonalLoop=1;jettySize=auto;html=1;" edge="1" parent="1" source="1CKEVuWMB60yqOg6PnPK-4" target="1CKEVuWMB60yqOg6PnPK-5">
          <mxGeometry relative="1" as="geometry" />
        </mxCell>
        <mxCell id="1CKEVuWMB60yqOg6PnPK-4" value="parameter" style="text;html=1;align=center;verticalAlign=middle;resizable=0;points=[];autosize=1;strokeColor=none;fillColor=none;" vertex="1" parent="1">
          <mxGeometry x="480" y="430" width="80" height="30" as="geometry" />
        </mxCell>
        <mxCell id="1CKEVuWMB60yqOg6PnPK-5" value="numerical&lt;div&gt;measurement&lt;/div&gt;" style="text;html=1;align=center;verticalAlign=middle;resizable=0;points=[];autosize=1;strokeColor=none;fillColor=none;" vertex="1" parent="1">
          <mxGeometry x="340" y="425" width="100" height="40" as="geometry" />
        </mxCell>
        <mxCell id="1CKEVuWMB60yqOg6PnPK-23" value="&lt;div&gt;&lt;font style=&quot;font-size: 18px;&quot;&gt;Type of&amp;nbsp;&lt;/font&gt;&lt;/div&gt;&lt;font size=&quot;3&quot;&gt;Data&lt;/font&gt;" style="text;html=1;align=center;verticalAlign=middle;resizable=0;points=[];autosize=1;strokeColor=none;fillColor=none;" vertex="1" parent="1">
          <mxGeometry x="775" y="200" width="90" height="50" as="geometry" />
        </mxCell>
        <mxCell id="1CKEVuWMB60yqOg6PnPK-24" value="Quantitative&lt;div&gt;or&amp;nbsp;&lt;/div&gt;&lt;div&gt;Numerical&lt;/div&gt;" style="text;html=1;align=center;verticalAlign=middle;resizable=0;points=[];autosize=1;strokeColor=none;fillColor=none;" vertex="1" parent="1">
          <mxGeometry x="685" y="280" width="90" height="60" as="geometry" />
        </mxCell>
        <mxCell id="1CKEVuWMB60yqOg6PnPK-158" style="edgeStyle=none;shape=link;rounded=0;orthogonalLoop=1;jettySize=auto;html=1;" edge="1" parent="1" source="1CKEVuWMB60yqOg6PnPK-25" target="1CKEVuWMB60yqOg6PnPK-24">
          <mxGeometry relative="1" as="geometry" />
        </mxCell>
        <mxCell id="1CKEVuWMB60yqOg6PnPK-25" value="Numbers&lt;div&gt;representing&lt;/div&gt;&lt;div&gt;Counts or&lt;/div&gt;&lt;div&gt;Measurements&lt;/div&gt;" style="text;html=1;align=center;verticalAlign=middle;resizable=0;points=[];autosize=1;strokeColor=none;fillColor=none;" vertex="1" parent="1">
          <mxGeometry x="570" y="190" width="100" height="70" as="geometry" />
        </mxCell>
        <mxCell id="1CKEVuWMB60yqOg6PnPK-32" value="" style="edgeStyle=none;rounded=0;orthogonalLoop=1;jettySize=auto;html=1;" edge="1" parent="1" source="1CKEVuWMB60yqOg6PnPK-26" target="1CKEVuWMB60yqOg6PnPK-31">
          <mxGeometry relative="1" as="geometry" />
        </mxCell>
        <mxCell id="1CKEVuWMB60yqOg6PnPK-26" value="Categorical&lt;div&gt;or&lt;/div&gt;&lt;div&gt;Qualitative&lt;/div&gt;&lt;div&gt;or&lt;/div&gt;&lt;div&gt;Attribute&lt;/div&gt;" style="text;html=1;align=center;verticalAlign=middle;resizable=0;points=[];autosize=1;strokeColor=none;fillColor=none;" vertex="1" parent="1">
          <mxGeometry x="875" y="280" width="80" height="90" as="geometry" />
        </mxCell>
        <mxCell id="1CKEVuWMB60yqOg6PnPK-28" style="edgeStyle=none;rounded=0;orthogonalLoop=1;jettySize=auto;html=1;entryX=0.667;entryY=0;entryDx=0;entryDy=0;entryPerimeter=0;" edge="1" parent="1" source="1CKEVuWMB60yqOg6PnPK-23" target="1CKEVuWMB60yqOg6PnPK-24">
          <mxGeometry relative="1" as="geometry" />
        </mxCell>
        <mxCell id="1CKEVuWMB60yqOg6PnPK-29" style="edgeStyle=none;rounded=0;orthogonalLoop=1;jettySize=auto;html=1;entryX=0.338;entryY=-0.044;entryDx=0;entryDy=0;entryPerimeter=0;" edge="1" parent="1" source="1CKEVuWMB60yqOg6PnPK-23" target="1CKEVuWMB60yqOg6PnPK-26">
          <mxGeometry relative="1" as="geometry" />
        </mxCell>
        <mxCell id="1CKEVuWMB60yqOg6PnPK-34" value="" style="edgeStyle=none;rounded=0;orthogonalLoop=1;jettySize=auto;html=1;" edge="1" parent="1" source="1CKEVuWMB60yqOg6PnPK-31" target="1CKEVuWMB60yqOg6PnPK-33">
          <mxGeometry relative="1" as="geometry" />
        </mxCell>
        <mxCell id="1CKEVuWMB60yqOg6PnPK-31" value="Names or Labels" style="text;html=1;align=center;verticalAlign=middle;resizable=0;points=[];autosize=1;strokeColor=none;fillColor=none;" vertex="1" parent="1">
          <mxGeometry x="860" y="400" width="110" height="30" as="geometry" />
        </mxCell>
        <mxCell id="1CKEVuWMB60yqOg6PnPK-33" value="&lt;font color=&quot;#ff0505&quot;&gt;Can be&lt;/font&gt;&lt;div&gt;&lt;font color=&quot;#ff0505&quot;&gt;coded with numbers&lt;/font&gt;&lt;/div&gt;" style="text;html=1;align=center;verticalAlign=middle;resizable=0;points=[];autosize=1;strokeColor=none;fillColor=none;" vertex="1" parent="1">
          <mxGeometry x="850" y="453" width="130" height="40" as="geometry" />
        </mxCell>
        <mxCell id="1CKEVuWMB60yqOg6PnPK-159" value="Discrete&lt;div&gt;(Countable)&lt;/div&gt;&lt;div&gt;&quot;next&quot; data exists&lt;/div&gt;&lt;div&gt;&quot;fewer&quot;&lt;/div&gt;" style="text;html=1;align=center;verticalAlign=middle;resizable=0;points=[];autosize=1;strokeColor=none;fillColor=none;" vertex="1" parent="1">
          <mxGeometry x="610" y="388" width="120" height="70" as="geometry" />
        </mxCell>
        <mxCell id="1CKEVuWMB60yqOg6PnPK-160" value="Continuous&lt;div&gt;(Numerical)&lt;/div&gt;&lt;div&gt;not countable&lt;/div&gt;&lt;div&gt;&quot;next&quot; data DNE&lt;/div&gt;&lt;div&gt;&quot;less&quot;&lt;/div&gt;" style="text;html=1;align=center;verticalAlign=middle;resizable=0;points=[];autosize=1;strokeColor=none;fillColor=none;" vertex="1" parent="1">
          <mxGeometry x="730" y="390" width="110" height="90" as="geometry" />
        </mxCell>
        <mxCell id="1CKEVuWMB60yqOg6PnPK-161" style="edgeStyle=none;rounded=0;orthogonalLoop=1;jettySize=auto;html=1;entryX=0.601;entryY=-0.088;entryDx=0;entryDy=0;entryPerimeter=0;" edge="1" parent="1" source="1CKEVuWMB60yqOg6PnPK-24" target="1CKEVuWMB60yqOg6PnPK-159">
          <mxGeometry relative="1" as="geometry" />
        </mxCell>
        <mxCell id="1CKEVuWMB60yqOg6PnPK-162" style="edgeStyle=none;rounded=0;orthogonalLoop=1;jettySize=auto;html=1;entryX=0.393;entryY=-0.127;entryDx=0;entryDy=0;entryPerimeter=0;" edge="1" parent="1" source="1CKEVuWMB60yqOg6PnPK-24" target="1CKEVuWMB60yqOg6PnPK-160">
          <mxGeometry relative="1" as="geometry" />
        </mxCell>
        <mxCell id="1CKEVuWMB60yqOg6PnPK-202" value="" style="edgeStyle=none;rounded=0;orthogonalLoop=1;jettySize=auto;html=1;shape=link;" edge="1" parent="1" source="1CKEVuWMB60yqOg6PnPK-203" target="1CKEVuWMB60yqOg6PnPK-204">
          <mxGeometry relative="1" as="geometry" />
        </mxCell>
        <mxCell id="1CKEVuWMB60yqOg6PnPK-203" value="Big Data" style="text;html=1;align=center;verticalAlign=middle;resizable=0;points=[];autosize=1;strokeColor=none;fillColor=none;" vertex="1" parent="1">
          <mxGeometry x="1215" y="330" width="70" height="30" as="geometry" />
        </mxCell>
        <mxCell id="1CKEVuWMB60yqOg6PnPK-204" value="Data sets where&amp;nbsp;&lt;div&gt;the analysis is beyond&lt;/div&gt;&lt;div&gt;the capabilities of&lt;/div&gt;&lt;div&gt;traditional software tools&lt;/div&gt;" style="text;html=1;align=center;verticalAlign=middle;resizable=0;points=[];autosize=1;strokeColor=none;fillColor=none;" vertex="1" parent="1">
          <mxGeometry x="1175" y="418" width="150" height="70" as="geometry" />
        </mxCell>
        <mxCell id="1CKEVuWMB60yqOg6PnPK-205" value="" style="edgeStyle=none;rounded=0;orthogonalLoop=1;jettySize=auto;html=1;shape=link;" edge="1" parent="1" source="1CKEVuWMB60yqOg6PnPK-206" target="1CKEVuWMB60yqOg6PnPK-207">
          <mxGeometry relative="1" as="geometry" />
        </mxCell>
        <mxCell id="1CKEVuWMB60yqOg6PnPK-206" value="Data Science" style="text;html=1;align=center;verticalAlign=middle;resizable=0;points=[];autosize=1;strokeColor=none;fillColor=none;" vertex="1" parent="1">
          <mxGeometry x="1410" y="330" width="90" height="30" as="geometry" />
        </mxCell>
        <mxCell id="1CKEVuWMB60yqOg6PnPK-207" value="Applications of&amp;nbsp;&lt;div&gt;Statistics&lt;/div&gt;&lt;div&gt;Comp Sci&lt;/div&gt;&lt;div&gt;Software Eng.&lt;/div&gt;&lt;div&gt;Other relevant fields&lt;/div&gt;" style="text;html=1;align=center;verticalAlign=middle;resizable=0;points=[];autosize=1;strokeColor=none;fillColor=none;" vertex="1" parent="1">
          <mxGeometry x="1390" y="418" width="130" height="90" as="geometry" />
        </mxCell>
        <mxCell id="1CKEVuWMB60yqOg6PnPK-208" value="" style="edgeStyle=none;rounded=0;orthogonalLoop=1;jettySize=auto;html=1;" edge="1" parent="1" source="1CKEVuWMB60yqOg6PnPK-212">
          <mxGeometry relative="1" as="geometry">
            <mxPoint x="1085" y="165" as="targetPoint" />
          </mxGeometry>
        </mxCell>
        <mxCell id="1CKEVuWMB60yqOg6PnPK-209" value="" style="edgeStyle=none;rounded=0;orthogonalLoop=1;jettySize=auto;html=1;" edge="1" parent="1" source="1CKEVuWMB60yqOg6PnPK-212" target="1CKEVuWMB60yqOg6PnPK-213">
          <mxGeometry relative="1" as="geometry" />
        </mxCell>
        <mxCell id="1CKEVuWMB60yqOg6PnPK-210" value="" style="edgeStyle=none;rounded=0;orthogonalLoop=1;jettySize=auto;html=1;" edge="1" parent="1" source="1CKEVuWMB60yqOg6PnPK-212" target="1CKEVuWMB60yqOg6PnPK-218">
          <mxGeometry relative="1" as="geometry" />
        </mxCell>
        <mxCell id="1CKEVuWMB60yqOg6PnPK-211" value="" style="edgeStyle=none;rounded=0;orthogonalLoop=1;jettySize=auto;html=1;" edge="1" parent="1" source="1CKEVuWMB60yqOg6PnPK-212" target="1CKEVuWMB60yqOg6PnPK-222">
          <mxGeometry relative="1" as="geometry" />
        </mxCell>
        <mxCell id="1CKEVuWMB60yqOg6PnPK-212" value="Levels of&amp;nbsp;&lt;div&gt;Measurement&lt;/div&gt;" style="text;html=1;align=center;verticalAlign=middle;resizable=0;points=[];autosize=1;strokeColor=none;fillColor=none;" vertex="1" parent="1">
          <mxGeometry x="1035" y="70" width="100" height="40" as="geometry" />
        </mxCell>
        <mxCell id="1CKEVuWMB60yqOg6PnPK-213" value="Ordinal" style="text;html=1;align=center;verticalAlign=middle;resizable=0;points=[];autosize=1;strokeColor=none;fillColor=none;" vertex="1" parent="1">
          <mxGeometry x="1185" y="75" width="60" height="30" as="geometry" />
        </mxCell>
        <mxCell id="1CKEVuWMB60yqOg6PnPK-214" value="" style="edgeStyle=none;rounded=0;orthogonalLoop=1;jettySize=auto;html=1;shape=link;" edge="1" parent="1" source="1CKEVuWMB60yqOg6PnPK-215" target="1CKEVuWMB60yqOg6PnPK-213">
          <mxGeometry relative="1" as="geometry" />
        </mxCell>
        <mxCell id="1CKEVuWMB60yqOg6PnPK-215" value="arrangeable&lt;div&gt;differences&lt;/div&gt;&lt;div&gt;either&amp;nbsp;&lt;/div&gt;&lt;div&gt;not determinable&lt;/div&gt;&lt;div&gt;or&lt;/div&gt;&lt;div&gt;meaningless&lt;/div&gt;" style="text;html=1;align=center;verticalAlign=middle;resizable=0;points=[];autosize=1;strokeColor=none;fillColor=none;" vertex="1" parent="1">
          <mxGeometry x="1315" y="40" width="110" height="100" as="geometry" />
        </mxCell>
        <mxCell id="1CKEVuWMB60yqOg6PnPK-216" value="" style="edgeStyle=none;rounded=0;orthogonalLoop=1;jettySize=auto;html=1;shape=link;" edge="1" parent="1" source="1CKEVuWMB60yqOg6PnPK-218" target="1CKEVuWMB60yqOg6PnPK-219">
          <mxGeometry relative="1" as="geometry" />
        </mxCell>
        <mxCell id="1CKEVuWMB60yqOg6PnPK-217" value="" style="edgeStyle=none;rounded=0;orthogonalLoop=1;jettySize=auto;html=1;" edge="1" parent="1" source="1CKEVuWMB60yqOg6PnPK-218" target="1CKEVuWMB60yqOg6PnPK-224">
          <mxGeometry relative="1" as="geometry" />
        </mxCell>
        <mxCell id="1CKEVuWMB60yqOg6PnPK-218" value="interval" style="text;html=1;align=center;verticalAlign=middle;resizable=0;points=[];autosize=1;strokeColor=none;fillColor=none;" vertex="1" parent="1">
          <mxGeometry x="1055" y="-23" width="60" height="30" as="geometry" />
        </mxCell>
        <mxCell id="1CKEVuWMB60yqOg6PnPK-219" value="arrangeable&lt;div&gt;meaningful differences&lt;/div&gt;" style="text;html=1;align=center;verticalAlign=middle;resizable=0;points=[];autosize=1;strokeColor=none;fillColor=none;" vertex="1" parent="1">
          <mxGeometry x="1015" y="-110" width="140" height="40" as="geometry" />
        </mxCell>
        <mxCell id="1CKEVuWMB60yqOg6PnPK-220" value="" style="edgeStyle=none;rounded=0;orthogonalLoop=1;jettySize=auto;html=1;shape=link;" edge="1" parent="1" source="1CKEVuWMB60yqOg6PnPK-222" target="1CKEVuWMB60yqOg6PnPK-223">
          <mxGeometry relative="1" as="geometry" />
        </mxCell>
        <mxCell id="1CKEVuWMB60yqOg6PnPK-221" value="" style="edgeStyle=none;rounded=0;orthogonalLoop=1;jettySize=auto;html=1;" edge="1" parent="1" source="1CKEVuWMB60yqOg6PnPK-222" target="1CKEVuWMB60yqOg6PnPK-224">
          <mxGeometry relative="1" as="geometry" />
        </mxCell>
        <mxCell id="1CKEVuWMB60yqOg6PnPK-222" value="ratio" style="text;html=1;align=center;verticalAlign=middle;resizable=0;points=[];autosize=1;strokeColor=none;fillColor=none;" vertex="1" parent="1">
          <mxGeometry x="940" y="75" width="50" height="30" as="geometry" />
        </mxCell>
        <mxCell id="1CKEVuWMB60yqOg6PnPK-223" value="arrangeable&lt;div&gt;meaningful differences&lt;/div&gt;&lt;div&gt;natural zero starting point&lt;/div&gt;" style="text;html=1;align=center;verticalAlign=middle;resizable=0;points=[];autosize=1;strokeColor=none;fillColor=none;" vertex="1" parent="1">
          <mxGeometry x="730" y="60" width="160" height="60" as="geometry" />
        </mxCell>
        <mxCell id="1CKEVuWMB60yqOg6PnPK-224" value="Ratio Test - &quot;Twice?&quot;&lt;div&gt;True Zero - arbitrary?&lt;/div&gt;" style="text;html=1;align=center;verticalAlign=middle;resizable=0;points=[];autosize=1;strokeColor=none;fillColor=none;" vertex="1" parent="1">
          <mxGeometry x="895" y="-28" width="140" height="40" as="geometry" />
        </mxCell>
        <mxCell id="1CKEVuWMB60yqOg6PnPK-225" value="" style="edgeStyle=none;rounded=0;orthogonalLoop=1;jettySize=auto;html=1;shape=link;" edge="1" parent="1" source="1CKEVuWMB60yqOg6PnPK-226">
          <mxGeometry relative="1" as="geometry">
            <mxPoint x="1085" y="270" as="targetPoint" />
          </mxGeometry>
        </mxCell>
        <mxCell id="1CKEVuWMB60yqOg6PnPK-226" value="Nominal" style="text;html=1;align=center;verticalAlign=middle;resizable=0;points=[];autosize=1;strokeColor=none;fillColor=none;" vertex="1" parent="1">
          <mxGeometry x="1050" y="165" width="70" height="30" as="geometry" />
        </mxCell>
        <mxCell id="1CKEVuWMB60yqOg6PnPK-227" value="names&lt;div&gt;labels&lt;/div&gt;&lt;div&gt;categories&lt;/div&gt;" style="text;html=1;align=center;verticalAlign=middle;resizable=0;points=[];autosize=1;strokeColor=none;fillColor=none;" vertex="1" parent="1">
          <mxGeometry x="1045" y="270" width="80" height="60" as="geometry" />
        </mxCell>
        <mxCell id="1CKEVuWMB60yqOg6PnPK-228" style="edgeStyle=none;rounded=0;orthogonalLoop=1;jettySize=auto;html=1;entryX=0.035;entryY=0.993;entryDx=0;entryDy=0;entryPerimeter=0;" edge="1" parent="1">
          <mxGeometry relative="1" as="geometry">
            <mxPoint x="858" y="205" as="sourcePoint" />
            <mxPoint x="1038.5" y="109.7199999999998" as="targetPoint" />
          </mxGeometry>
        </mxCell>
        <mxCell id="1CKEVuWMB60yqOg6PnPK-231" value="" style="edgeStyle=none;rounded=0;orthogonalLoop=1;jettySize=auto;html=1;" edge="1" parent="1" source="1CKEVuWMB60yqOg6PnPK-229" target="1CKEVuWMB60yqOg6PnPK-230">
          <mxGeometry relative="1" as="geometry" />
        </mxCell>
        <mxCell id="1CKEVuWMB60yqOg6PnPK-229" value="Hawthorne and&lt;div&gt;Experimenter Effects&lt;/div&gt;" style="text;html=1;align=center;verticalAlign=middle;resizable=0;points=[];autosize=1;strokeColor=none;fillColor=none;" vertex="1" parent="1">
          <mxGeometry x="-125" y="843" width="130" height="40" as="geometry" />
        </mxCell>
        <mxCell id="1CKEVuWMB60yqOg6PnPK-230" value="Knowledge of being Studied&lt;div&gt;influencing study&lt;/div&gt;&lt;div&gt;Researcher unintentionally&lt;/div&gt;&lt;div&gt;influencing subject&lt;/div&gt;" style="text;html=1;align=center;verticalAlign=middle;resizable=0;points=[];autosize=1;strokeColor=none;fillColor=none;" vertex="1" parent="1">
          <mxGeometry x="-145" y="940" width="170" height="70" as="geometry" />
        </mxCell>
        <mxCell id="1CKEVuWMB60yqOg6PnPK-234" value="" style="edgeStyle=none;rounded=0;orthogonalLoop=1;jettySize=auto;html=1;" edge="1" parent="1" source="1CKEVuWMB60yqOg6PnPK-232" target="1CKEVuWMB60yqOg6PnPK-233">
          <mxGeometry relative="1" as="geometry" />
        </mxCell>
        <mxCell id="1CKEVuWMB60yqOg6PnPK-236" value="" style="edgeStyle=none;rounded=0;orthogonalLoop=1;jettySize=auto;html=1;" edge="1" parent="1" source="1CKEVuWMB60yqOg6PnPK-232" target="1CKEVuWMB60yqOg6PnPK-235">
          <mxGeometry relative="1" as="geometry" />
        </mxCell>
        <mxCell id="1CKEVuWMB60yqOg6PnPK-238" value="" style="edgeStyle=none;rounded=0;orthogonalLoop=1;jettySize=auto;html=1;" edge="1" parent="1" source="1CKEVuWMB60yqOg6PnPK-232" target="1CKEVuWMB60yqOg6PnPK-237">
          <mxGeometry relative="1" as="geometry" />
        </mxCell>
        <mxCell id="1CKEVuWMB60yqOg6PnPK-232" value="Missing Data" style="text;html=1;align=center;verticalAlign=middle;resizable=0;points=[];autosize=1;strokeColor=none;fillColor=none;" vertex="1" parent="1">
          <mxGeometry x="945" y="590" width="90" height="30" as="geometry" />
        </mxCell>
        <mxCell id="1CKEVuWMB60yqOg6PnPK-233" value="Can lead to&amp;nbsp;&lt;div&gt;misleading results&lt;/div&gt;" style="text;html=1;align=center;verticalAlign=middle;resizable=0;points=[];autosize=1;strokeColor=none;fillColor=none;" vertex="1" parent="1">
          <mxGeometry x="930" y="510" width="120" height="40" as="geometry" />
        </mxCell>
        <mxCell id="1CKEVuWMB60yqOg6PnPK-250" value="" style="edgeStyle=none;rounded=0;orthogonalLoop=1;jettySize=auto;html=1;" edge="1" parent="1" source="1CKEVuWMB60yqOg6PnPK-235" target="1CKEVuWMB60yqOg6PnPK-248">
          <mxGeometry relative="1" as="geometry" />
        </mxCell>
        <mxCell id="1CKEVuWMB60yqOg6PnPK-235" value="missing&lt;div&gt;completely&lt;/div&gt;&lt;div&gt;at random&lt;/div&gt;&lt;div&gt;remaining data not&lt;/div&gt;&lt;div&gt;likely to be biased&lt;/div&gt;" style="text;html=1;align=center;verticalAlign=middle;resizable=0;points=[];autosize=1;strokeColor=none;fillColor=none;" vertex="1" parent="1">
          <mxGeometry x="1070" y="558" width="120" height="90" as="geometry" />
        </mxCell>
        <mxCell id="1CKEVuWMB60yqOg6PnPK-254" value="" style="edgeStyle=none;rounded=0;orthogonalLoop=1;jettySize=auto;html=1;" edge="1" parent="1" source="1CKEVuWMB60yqOg6PnPK-237" target="1CKEVuWMB60yqOg6PnPK-251">
          <mxGeometry relative="1" as="geometry" />
        </mxCell>
        <mxCell id="1CKEVuWMB60yqOg6PnPK-237" value="missing&lt;div&gt;not at random&lt;/div&gt;&lt;div&gt;&lt;div&gt;remaining data&lt;/div&gt;&lt;div&gt;likely to be biased&lt;/div&gt;&lt;/div&gt;" style="text;html=1;align=center;verticalAlign=middle;resizable=0;points=[];autosize=1;strokeColor=none;fillColor=none;" vertex="1" parent="1">
          <mxGeometry x="785" y="568" width="120" height="70" as="geometry" />
        </mxCell>
        <mxCell id="1CKEVuWMB60yqOg6PnPK-249" value="" style="edgeStyle=none;rounded=0;orthogonalLoop=1;jettySize=auto;html=1;" edge="1" parent="1" source="1CKEVuWMB60yqOg6PnPK-247" target="1CKEVuWMB60yqOg6PnPK-248">
          <mxGeometry relative="1" as="geometry" />
        </mxCell>
        <mxCell id="1CKEVuWMB60yqOg6PnPK-252" value="" style="edgeStyle=none;rounded=0;orthogonalLoop=1;jettySize=auto;html=1;" edge="1" parent="1" source="1CKEVuWMB60yqOg6PnPK-247" target="1CKEVuWMB60yqOg6PnPK-251">
          <mxGeometry relative="1" as="geometry" />
        </mxCell>
        <mxCell id="1CKEVuWMB60yqOg6PnPK-247" value="Corrections" style="text;html=1;align=center;verticalAlign=middle;resizable=0;points=[];autosize=1;strokeColor=none;fillColor=none;" vertex="1" parent="1">
          <mxGeometry x="950" y="685" width="80" height="30" as="geometry" />
        </mxCell>
        <mxCell id="1CKEVuWMB60yqOg6PnPK-248" value="delete cases" style="text;html=1;align=center;verticalAlign=middle;resizable=0;points=[];autosize=1;strokeColor=none;fillColor=none;" vertex="1" parent="1">
          <mxGeometry x="1070" y="678" width="90" height="30" as="geometry" />
        </mxCell>
        <mxCell id="1CKEVuWMB60yqOg6PnPK-251" value="Impute Missing&lt;div&gt;Values&lt;/div&gt;" style="text;html=1;align=center;verticalAlign=middle;resizable=0;points=[];autosize=1;strokeColor=none;fillColor=none;" vertex="1" parent="1">
          <mxGeometry x="795" y="680" width="100" height="40" as="geometry" />
        </mxCell>
        <mxCell id="1CKEVuWMB60yqOg6PnPK-253" style="edgeStyle=none;rounded=0;orthogonalLoop=1;jettySize=auto;html=1;entryX=0.776;entryY=-0.051;entryDx=0;entryDy=0;entryPerimeter=0;" edge="1" parent="1" source="1CKEVuWMB60yqOg6PnPK-235" target="1CKEVuWMB60yqOg6PnPK-251">
          <mxGeometry relative="1" as="geometry" />
        </mxCell>
        <mxCell id="1CKEVuWMB60yqOg6PnPK-257" value="" style="edgeStyle=none;rounded=0;orthogonalLoop=1;jettySize=auto;html=1;" edge="1" parent="1" source="1CKEVuWMB60yqOg6PnPK-255" target="1CKEVuWMB60yqOg6PnPK-256">
          <mxGeometry relative="1" as="geometry" />
        </mxCell>
        <mxCell id="1CKEVuWMB60yqOg6PnPK-255" value="Declining Response Rate" style="text;html=1;align=center;verticalAlign=middle;resizable=0;points=[];autosize=1;strokeColor=none;fillColor=none;" vertex="1" parent="1">
          <mxGeometry x="-130" y="1088" width="160" height="30" as="geometry" />
        </mxCell>
        <mxCell id="1CKEVuWMB60yqOg6PnPK-256" value="Telephone Response Rate went down&lt;div&gt;Does not cause inaccurate results&lt;/div&gt;&lt;div&gt;but do result in higher survey costs&lt;/div&gt;" style="text;html=1;align=center;verticalAlign=middle;resizable=0;points=[];autosize=1;strokeColor=none;fillColor=none;" vertex="1" parent="1">
          <mxGeometry x="-165" y="1160" width="230" height="60" as="geometry" />
        </mxCell>
        <mxCell id="1CKEVuWMB60yqOg6PnPK-259" value="Statistical&lt;div&gt;Methods used&lt;/div&gt;&lt;div&gt;in Analysis&lt;/div&gt;" style="text;html=1;align=center;verticalAlign=middle;resizable=0;points=[];autosize=1;strokeColor=none;fillColor=none;" vertex="1" parent="1">
          <mxGeometry x="585" y="95" width="100" height="60" as="geometry" />
        </mxCell>
        <mxCell id="1CKEVuWMB60yqOg6PnPK-260" style="edgeStyle=none;rounded=0;orthogonalLoop=1;jettySize=auto;html=1;entryX=0.992;entryY=0.772;entryDx=0;entryDy=0;entryPerimeter=0;strokeWidth=3;" edge="1" parent="1" source="1CKEVuWMB60yqOg6PnPK-23" target="1CKEVuWMB60yqOg6PnPK-259">
          <mxGeometry relative="1" as="geometry" />
        </mxCell>
        <mxCell id="1CKEVuWMB60yqOg6PnPK-261" value="one of the keys&lt;div&gt;that determine&lt;/div&gt;" style="edgeLabel;html=1;align=center;verticalAlign=middle;resizable=0;points=[];" vertex="1" connectable="0" parent="1CKEVuWMB60yqOg6PnPK-260">
          <mxGeometry x="-0.0002" y="1" relative="1" as="geometry">
            <mxPoint as="offset" />
          </mxGeometry>
        </mxCell>
        <mxCell id="1CKEVuWMB60yqOg6PnPK-262" value="Not really dealt&lt;div&gt;with in this book&lt;/div&gt;" style="text;html=1;align=center;verticalAlign=middle;resizable=0;points=[];autosize=1;strokeColor=none;fillColor=none;" vertex="1" parent="1">
          <mxGeometry x="1055" y="493" width="110" height="40" as="geometry" />
        </mxCell>
        <mxCell id="1CKEVuWMB60yqOg6PnPK-263" style="edgeStyle=none;rounded=0;orthogonalLoop=1;jettySize=auto;html=1;entryX=0.342;entryY=0.976;entryDx=0;entryDy=0;entryPerimeter=0;" edge="1" parent="1" source="1CKEVuWMB60yqOg6PnPK-232" target="1CKEVuWMB60yqOg6PnPK-262">
          <mxGeometry relative="1" as="geometry" />
        </mxCell>
        <mxCell id="1CKEVuWMB60yqOg6PnPK-12" value="Basic Skills and Concepts" parent="0" />
        <mxCell id="1CKEVuWMB60yqOg6PnPK-35" value="Useful Tidbits" parent="0" />
        <mxCell id="1CKEVuWMB60yqOg6PnPK-38" value="" style="edgeStyle=none;rounded=0;orthogonalLoop=1;jettySize=auto;html=1;" edge="1" parent="1CKEVuWMB60yqOg6PnPK-35" source="1CKEVuWMB60yqOg6PnPK-36" target="1CKEVuWMB60yqOg6PnPK-37">
          <mxGeometry relative="1" as="geometry" />
        </mxCell>
        <mxCell id="1CKEVuWMB60yqOg6PnPK-36" value="Validation Question" style="text;html=1;align=center;verticalAlign=middle;resizable=0;points=[];autosize=1;strokeColor=none;fillColor=none;" vertex="1" parent="1CKEVuWMB60yqOg6PnPK-35">
          <mxGeometry x="-85" y="-2" width="130" height="30" as="geometry" />
        </mxCell>
        <mxCell id="1CKEVuWMB60yqOg6PnPK-37" value="Test subjects for&lt;div&gt;seriousness&lt;/div&gt;" style="text;html=1;align=center;verticalAlign=middle;resizable=0;points=[];autosize=1;strokeColor=none;fillColor=none;" vertex="1" parent="1CKEVuWMB60yqOg6PnPK-35">
          <mxGeometry x="-75" y="60" width="110" height="40" as="geometry" />
        </mxCell>
        <mxCell id="1CKEVuWMB60yqOg6PnPK-166" value="" style="edgeStyle=none;rounded=0;orthogonalLoop=1;jettySize=auto;html=1;" edge="1" parent="1CKEVuWMB60yqOg6PnPK-35" source="1CKEVuWMB60yqOg6PnPK-164" target="1CKEVuWMB60yqOg6PnPK-165">
          <mxGeometry relative="1" as="geometry" />
        </mxCell>
        <mxCell id="1CKEVuWMB60yqOg6PnPK-164" value="Measuring Disobedience" style="text;html=1;align=center;verticalAlign=middle;resizable=0;points=[];autosize=1;strokeColor=none;fillColor=none;" vertex="1" parent="1CKEVuWMB60yqOg6PnPK-35">
          <mxGeometry x="-110" y="168" width="160" height="30" as="geometry" />
        </mxCell>
        <mxCell id="1CKEVuWMB60yqOg6PnPK-165" value="Milgram&#39;s Experiment" style="text;html=1;align=center;verticalAlign=middle;resizable=0;points=[];autosize=1;strokeColor=none;fillColor=none;" vertex="1" parent="1CKEVuWMB60yqOg6PnPK-35">
          <mxGeometry x="-100" y="243" width="140" height="30" as="geometry" />
        </mxCell>
        <mxCell id="1CKEVuWMB60yqOg6PnPK-172" value="" style="edgeStyle=none;rounded=0;orthogonalLoop=1;jettySize=auto;html=1;" edge="1" parent="1CKEVuWMB60yqOg6PnPK-35" source="1CKEVuWMB60yqOg6PnPK-170" target="1CKEVuWMB60yqOg6PnPK-171">
          <mxGeometry relative="1" as="geometry" />
        </mxCell>
        <mxCell id="1CKEVuWMB60yqOg6PnPK-170" value="Big Data Study of&amp;nbsp;&lt;div&gt;Measles Vaccine and&lt;/div&gt;&lt;div&gt;Autism&lt;/div&gt;" style="text;html=1;align=center;verticalAlign=middle;resizable=0;points=[];autosize=1;strokeColor=none;fillColor=none;" vertex="1" parent="1CKEVuWMB60yqOg6PnPK-35">
          <mxGeometry x="-100" y="343" width="140" height="60" as="geometry" />
        </mxCell>
        <mxCell id="1CKEVuWMB60yqOg6PnPK-171" value="MMR 1998 study of 12 subjects&lt;div&gt;vs.&lt;/div&gt;&lt;div&gt;10 year study of 657461&lt;/div&gt;" style="text;html=1;align=center;verticalAlign=middle;resizable=0;points=[];autosize=1;strokeColor=none;fillColor=none;" vertex="1" parent="1CKEVuWMB60yqOg6PnPK-35">
          <mxGeometry x="-125" y="430" width="190" height="60" as="geometry" />
        </mxCell>
        <mxCell id="1CKEVuWMB60yqOg6PnPK-183" value="6 degrees of&lt;div&gt;separation&lt;/div&gt;" style="text;html=1;align=center;verticalAlign=middle;resizable=0;points=[];autosize=1;strokeColor=none;fillColor=none;" vertex="1" parent="1CKEVuWMB60yqOg6PnPK-35">
          <mxGeometry x="-95" y="543" width="90" height="40" as="geometry" />
        </mxCell>
        <mxCell id="1CKEVuWMB60yqOg6PnPK-201" value="" style="edgeStyle=none;rounded=0;orthogonalLoop=1;jettySize=auto;html=1;" edge="1" parent="1CKEVuWMB60yqOg6PnPK-35" source="1CKEVuWMB60yqOg6PnPK-199" target="1CKEVuWMB60yqOg6PnPK-200">
          <mxGeometry relative="1" as="geometry" />
        </mxCell>
        <mxCell id="1CKEVuWMB60yqOg6PnPK-199" value="Big Data&lt;div&gt;vs&lt;/div&gt;&lt;div&gt;Clinical Trial&lt;/div&gt;" style="text;html=1;align=center;verticalAlign=middle;resizable=0;points=[];autosize=1;strokeColor=none;fillColor=none;" vertex="1" parent="1CKEVuWMB60yqOg6PnPK-35">
          <mxGeometry x="-95" y="623" width="90" height="60" as="geometry" />
        </mxCell>
        <mxCell id="1CKEVuWMB60yqOg6PnPK-200" value="Paxil for depression&lt;div&gt;Pravastatin for High Cholesterol&lt;/div&gt;&lt;div&gt;-&amp;gt; inc in glucose levels&lt;/div&gt;&lt;div&gt;Found from database search&lt;/div&gt;" style="text;html=1;align=center;verticalAlign=middle;resizable=0;points=[];autosize=1;strokeColor=none;fillColor=none;" vertex="1" parent="1CKEVuWMB60yqOg6PnPK-35">
          <mxGeometry x="-145" y="720" width="190" height="70" as="geometry" />
        </mxCell>
      </root>
    </mxGraphModel>
  </diagram>
</mxfile>
